<svg width="52" height="52" viewBox="0 0 52 52" fill="none" xmlns="http://www.w3.org/2000/svg">
<path d="M26 0.8125C21.0184 0.8125 16.1486 2.28972 12.0066 5.05736C7.86452 7.825 4.63618 11.7587 2.7298 16.3612C0.823413 20.9636 0.324617 26.0279 1.29648 30.9138C2.26835 35.7997 4.66722 40.2877 8.18976 43.8103C11.7123 47.3328 16.2003 49.7317 21.0862 50.7035C25.9721 51.6754 31.0364 51.1766 35.6388 49.2702C40.2413 47.3638 44.175 44.1355 46.9427 39.9934C49.7103 35.8514 51.1875 30.9816 51.1875 26C51.1811 19.3218 48.5254 12.919 43.8032 8.19683C39.081 3.47465 32.6782 0.818912 26 0.8125ZM26 47.3125C21.7848 47.3125 17.6642 46.0625 14.1594 43.7207C10.6546 41.3788 7.92292 38.0503 6.30983 34.1559C4.69674 30.2616 4.27468 25.9764 5.09702 21.8421C5.91937 17.7079 7.94919 13.9104 10.9298 10.9298C13.9104 7.94918 17.7079 5.91936 21.8421 5.09701C25.9764 4.27467 30.2616 4.69672 34.156 6.30982C38.0503 7.92291 41.3789 10.6546 43.7207 14.1594C46.0626 17.6642 47.3125 21.7848 47.3125 26C47.3061 31.6505 45.0586 37.0677 41.0631 41.0631C37.0677 45.0586 31.6505 47.3061 26 47.3125ZM37.625 26C37.625 26.5139 37.4209 27.0067 37.0575 27.37C36.6942 27.7334 36.2014 27.9375 35.6875 27.9375H27.9375V35.6875C27.9375 36.2014 27.7334 36.6942 27.37 37.0575C27.0067 37.4209 26.5139 37.625 26 37.625C25.4862 37.625 24.9933 37.4209 24.63 37.0575C24.2666 36.6942 24.0625 36.2014 24.0625 35.6875V27.9375H16.3125C15.7987 27.9375 15.3058 27.7334 14.9425 27.37C14.5791 27.0067 14.375 26.5139 14.375 26C14.375 25.4861 14.5791 24.9933 14.9425 24.63C15.3058 24.2666 15.7987 24.0625 16.3125 24.0625H24.0625V16.3125C24.0625 15.7986 24.2666 15.3058 24.63 14.9425C24.9933 14.5791 25.4862 14.375 26 14.375C26.5139 14.375 27.0067 14.5791 27.37 14.9425C27.7334 15.3058 27.9375 15.7986 27.9375 16.3125V24.0625H35.6875C36.2014 24.0625 36.6942 24.2666 37.0575 24.63C37.4209 24.9933 37.625 25.4861 37.625 26Z" fill="#C0C8D2"/>
</svg>
