<svg width="14" height="14" viewBox="0 0 14 14" fill="none" xmlns="http://www.w3.org/2000/svg">
<path fill-rule="evenodd" clip-rule="evenodd" d="M7.00061 5.58513L11.5926 0.993161C11.9835 0.602276 12.6172 0.602276 13.0081 0.993161C13.399 1.38405 13.399 2.0178 13.0081 2.40868L8.41678 7L13.0081 11.5913C13.399 11.9822 13.399 12.6159 13.0081 13.0068C12.6172 13.3977 11.9835 13.3977 11.5926 13.0068L7.00061 8.41487L2.40864 13.0068C2.01775 13.3977 1.384 13.3977 0.993115 13.0068C0.60223 12.6159 0.60223 11.9822 0.993115 11.5913L5.58443 7L0.993115 2.40868C0.60223 2.0178 0.60223 1.38405 0.993115 0.993161C1.384 0.602276 2.01775 0.602276 2.40864 0.993161L7.00061 5.58513Z" fill="#545969"/>
</svg>
