<svg width="20" height="20" viewBox="0 0 20 20" fill="none" xmlns="http://www.w3.org/2000/svg">
<path d="M10.0007 12.9792C9.88954 12.9792 9.78537 12.9617 9.68815 12.9267C9.59093 12.8922 9.50065 12.8333 9.41732 12.75L6.41732 9.74999C6.26454 9.59722 6.18815 9.40277 6.18815 9.16666C6.18815 8.93055 6.26454 8.73611 6.41732 8.58333C6.5701 8.43055 6.76787 8.35055 7.01065 8.34333C7.25398 8.33666 7.45204 8.40972 7.60482 8.56249L9.16732 10.125V4.16666C9.16732 3.93055 9.24732 3.7325 9.40732 3.5725C9.56676 3.41305 9.76454 3.33333 10.0007 3.33333C10.2368 3.33333 10.4348 3.41305 10.5948 3.5725C10.7543 3.7325 10.834 3.93055 10.834 4.16666V10.125L12.3965 8.56249C12.5493 8.40972 12.7473 8.33666 12.9907 8.34333C13.2334 8.35055 13.4312 8.43055 13.584 8.58333C13.7368 8.73611 13.8132 8.93055 13.8132 9.16666C13.8132 9.40277 13.7368 9.59722 13.584 9.74999L10.584 12.75C10.5007 12.8333 10.4104 12.8922 10.3132 12.9267C10.2159 12.9617 10.1118 12.9792 10.0007 12.9792ZM5.00065 16.6667C4.54232 16.6667 4.1501 16.5036 3.82398 16.1775C3.49732 15.8508 3.33398 15.4583 3.33398 15V13.3333C3.33398 13.0972 3.41371 12.8992 3.57315 12.7392C3.73315 12.5797 3.93121 12.5 4.16732 12.5C4.40343 12.5 4.60148 12.5797 4.76148 12.7392C4.92093 12.8992 5.00065 13.0972 5.00065 13.3333V15H15.0007V13.3333C15.0007 13.0972 15.0807 12.8992 15.2407 12.7392C15.4001 12.5797 15.5979 12.5 15.834 12.5C16.0701 12.5 16.2679 12.5797 16.4273 12.7392C16.5873 12.8992 16.6673 13.0972 16.6673 13.3333V15C16.6673 15.4583 16.5043 15.8508 16.1782 16.1775C15.8515 16.5036 15.459 16.6667 15.0007 16.6667H5.00065Z" fill="#545969"/>
</svg>
