<svg width="14" height="14" viewBox="0 0 14 14" fill="none" xmlns="http://www.w3.org/2000/svg">
<path fill-rule="evenodd" clip-rule="evenodd" d="M6.99987 5.58514L11.5918 0.993177C11.9827 0.602291 12.6165 0.602291 13.0074 0.993177C13.3982 1.38406 13.3982 2.01781 13.0074 2.4087L8.41605 7.00001L13.0074 11.5913C13.3982 11.9822 13.3982 12.616 13.0074 13.0068C12.6165 13.3977 11.9827 13.3977 11.5918 13.0068L6.99987 8.41488L2.40791 13.0068C2.01702 13.3977 1.38327 13.3977 0.992383 13.0068C0.601497 12.616 0.601497 11.9822 0.992383 11.5913L5.5837 7.00001L0.992383 2.4087C0.601497 2.01781 0.601497 1.38406 0.992383 0.993177C1.38327 0.602291 2.01702 0.602291 2.40791 0.993177L6.99987 5.58514Z" fill="#545969"/>
</svg>
