<svg width="10" height="11" viewBox="0 0 10 11" fill="none" xmlns="http://www.w3.org/2000/svg">
<path d="M5 8C5.14167 8 5.2605 7.952 5.3565 7.856C5.45217 7.76033 5.5 7.64167 5.5 7.5V5.4875C5.5 5.34583 5.45217 5.22917 5.3565 5.1375C5.2605 5.04583 5.14167 5 5 5C4.85833 5 4.73967 5.04783 4.644 5.1435C4.548 5.2395 4.5 5.35833 4.5 5.5V7.5125C4.5 7.65417 4.548 7.77083 4.644 7.8625C4.73967 7.95417 4.85833 8 5 8ZM5 4C5.14167 4 5.2605 3.952 5.3565 3.856C5.45217 3.76033 5.5 3.64167 5.5 3.5C5.5 3.35833 5.45217 3.2395 5.3565 3.1435C5.2605 3.04783 5.14167 3 5 3C4.85833 3 4.73967 3.04783 4.644 3.1435C4.548 3.2395 4.5 3.35833 4.5 3.5C4.5 3.64167 4.548 3.76033 4.644 3.856C4.73967 3.952 4.85833 4 5 4ZM5 10.5C4.30833 10.5 3.65833 10.3687 3.05 10.106C2.44167 9.84367 1.9125 9.4875 1.4625 9.0375C1.0125 8.5875 0.656333 8.05833 0.394 7.45C0.131333 6.84167 0 6.19167 0 5.5C0 4.80833 0.131333 4.15833 0.394 3.55C0.656333 2.94167 1.0125 2.4125 1.4625 1.9625C1.9125 1.5125 2.44167 1.15617 3.05 0.8935C3.65833 0.631167 4.30833 0.5 5 0.5C5.69167 0.5 6.34167 0.631167 6.95 0.8935C7.55833 1.15617 8.0875 1.5125 8.5375 1.9625C8.9875 2.4125 9.34367 2.94167 9.606 3.55C9.86867 4.15833 10 4.80833 10 5.5C10 6.19167 9.86867 6.84167 9.606 7.45C9.34367 8.05833 8.9875 8.5875 8.5375 9.0375C8.0875 9.4875 7.55833 9.84367 6.95 10.106C6.34167 10.3687 5.69167 10.5 5 10.5Z" fill="#545969"/>
</svg>