<svg width="21" height="24" viewBox="0 0 21 24" fill="none" xmlns="http://www.w3.org/2000/svg">
<path fill-rule="evenodd" clip-rule="evenodd" d="M21 3V24L17.25 21L13.875 24L10.5 21L7.125 24L3.75 21L0 24V3C0 1.34315 1.34315 0 3 0H18C19.6569 0 21 1.34315 21 3ZM4.5 9C3.67157 9 3 9.67157 3 10.5C3 11.3284 3.67157 12 4.5 12H16.5C17.3284 12 18 11.3284 18 10.5C18 9.67157 17.3284 9 16.5 9H4.5ZM9 13.5C8.17157 13.5 7.5 14.1716 7.5 15C7.5 15.8284 8.17157 16.5 9 16.5H16.5C17.3284 16.5 18 15.8284 18 15C18 14.1716 17.3284 13.5 16.5 13.5H9ZM4.5 4.5C3.67157 4.5 3 5.17157 3 6C3 6.82843 3.67157 7.5 4.5 7.5H16.5C17.3284 7.5 18 6.82843 18 6C18 5.17157 17.3284 4.5 16.5 4.5H4.5Z" fill="#545969"/>
</svg>
