<svg width="1366" height="768" viewBox="0 0 1366 768" fill="none" xmlns="http://www.w3.org/2000/svg">
<g clip-path="url(#clip0_339_18291)">
<rect width="1366" height="768" fill="white"/>
<line x1="258.5" y1="2.18557e-08" x2="258.5" y2="768" stroke="#EBEEF1"/>
<line x1="1108.5" y1="2.18557e-08" x2="1108.5" y2="768" stroke="#EBEEF1"/>
<path opacity="0.1" d="M0 0H1366V298L0 627.5V0Z" fill="#CFF5F6"/>

<path d="M530.874 458.539L530.875 458.539C531.153 458.813 531.598 458.812 531.874 458.536L531.874 458.536L536.939 453.481L536.939 453.48C537.217 453.2 537.217 452.747 536.939 452.467C536.661 452.186 536.21 452.186 535.931 452.466C535.931 452.467 535.931 452.467 535.931 452.467L531.375 457.006L529.066 454.735C528.788 454.455 528.336 454.455 528.058 454.735C527.781 455.015 527.781 455.469 528.058 455.749L528.058 455.749L528.059 455.75L530.874 458.539Z" fill="white" stroke="white" stroke-width="0.3"/>
<g filter="url(#filter2_ddi_339_18291)">
</g>
<path d="M110.487 556.973L258.453 521.249V552.321L110.487 589.211V556.973Z" fill="#80E9FF"/>
<path d="M55 603.152L383.484 522.556V566.557L55 648.46V603.152Z" fill="#7A73FF"/>
<path d="M110.487 589.211L258.453 552.616V563.072L110.487 600.538V589.211Z" fill="#0048E5"/>
<path d="M1009 337.136L1338 256.54V300.541L1009 382.444V337.136Z" fill="#7A73FF"/>
</g>
<defs>
<filter id="filter0_d_339_18291" x="440" y="128" width="486" height="529" filterUnits="userSpaceOnUse" color-interpolation-filters="sRGB">
<feFlood flood-opacity="0" result="BackgroundImageFix"/>
<feColorMatrix in="SourceAlpha" type="matrix" values="0 0 0 0 0 0 0 0 0 0 0 0 0 0 0 0 0 0 127 0" result="hardAlpha"/>
<feOffset/>
<feGaussianBlur stdDeviation="4"/>
<feComposite in2="hardAlpha" operator="out"/>
<feColorMatrix type="matrix" values="0 0 0 0 0 0 0 0 0 0 0 0 0 0 0 0 0 0 0.17 0"/>
<feBlend mode="normal" in2="BackgroundImageFix" result="effect1_dropShadow_339_18291"/>
<feBlend mode="normal" in="SourceGraphic" in2="effect1_dropShadow_339_18291" result="shape"/>
</filter>
<filter id="filter1_dd_339_18291" x="519.5" y="445.5" width="25" height="25" filterUnits="userSpaceOnUse" color-interpolation-filters="sRGB">
<feFlood flood-opacity="0" result="BackgroundImageFix"/>
<feColorMatrix in="SourceAlpha" type="matrix" values="0 0 0 0 0 0 0 0 0 0 0 0 0 0 0 0 0 0 127 0" result="hardAlpha"/>
<feOffset dy="1"/>
<feGaussianBlur stdDeviation="0.5"/>
<feColorMatrix type="matrix" values="0 0 0 0 0 0 0 0 0 0 0 0 0 0 0 0 0 0 0.12 0"/>
<feBlend mode="normal" in2="BackgroundImageFix" result="effect1_dropShadow_339_18291"/>
<feColorMatrix in="SourceAlpha" type="matrix" values="0 0 0 0 0 0 0 0 0 0 0 0 0 0 0 0 0 0 127 0" result="hardAlpha"/>
<feOffset dy="2"/>
<feGaussianBlur stdDeviation="2.5"/>
<feColorMatrix type="matrix" values="0 0 0 0 0.235294 0 0 0 0 0.258824 0 0 0 0 0.341176 0 0 0 0.08 0"/>
<feBlend mode="normal" in2="effect1_dropShadow_339_18291" result="effect2_dropShadow_339_18291"/>
<feBlend mode="normal" in="SourceGraphic" in2="effect2_dropShadow_339_18291" result="shape"/>
</filter>
<filter id="filter2_ddi_339_18291" x="510" y="496" width="346" height="44" filterUnits="userSpaceOnUse" color-interpolation-filters="sRGB">
<feFlood flood-opacity="0" result="BackgroundImageFix"/>
<feColorMatrix in="SourceAlpha" type="matrix" values="0 0 0 0 0 0 0 0 0 0 0 0 0 0 0 0 0 0 127 0" result="hardAlpha"/>
<feOffset dy="1"/>
<feGaussianBlur stdDeviation="0.5"/>
<feColorMatrix type="matrix" values="0 0 0 0 0 0 0 0 0 0 0 0 0 0 0 0 0 0 0.08 0"/>
<feBlend mode="normal" in2="BackgroundImageFix" result="effect1_dropShadow_339_18291"/>
<feColorMatrix in="SourceAlpha" type="matrix" values="0 0 0 0 0 0 0 0 0 0 0 0 0 0 0 0 0 0 127 0" result="hardAlpha"/>
<feOffset dy="2"/>
<feGaussianBlur stdDeviation="2.5"/>
<feColorMatrix type="matrix" values="0 0 0 0 0.235294 0 0 0 0 0.258824 0 0 0 0 0.341176 0 0 0 0.12 0"/>
<feBlend mode="normal" in2="effect1_dropShadow_339_18291" result="effect2_dropShadow_339_18291"/>
<feBlend mode="normal" in="SourceGraphic" in2="effect2_dropShadow_339_18291" result="shape"/>
<feColorMatrix in="SourceAlpha" type="matrix" values="0 0 0 0 0 0 0 0 0 0 0 0 0 0 0 0 0 0 127 0" result="hardAlpha"/>
<feOffset dy="-1"/>
<feGaussianBlur stdDeviation="0.5"/>
<feComposite in2="hardAlpha" operator="arithmetic" k2="-1" k3="1"/>
<feColorMatrix type="matrix" values="0 0 0 0 0 0 0 0 0 0 0 0 0 0 0 0 0 0 0.12 0"/>
<feBlend mode="normal" in2="shape" result="effect3_innerShadow_339_18291"/>
</filter>
<clipPath id="clip0_339_18291">
<rect width="1366" height="768" fill="white"/>
</clipPath>
<clipPath id="clip1_339_18291">
<rect width="19.542" height="20" fill="white" transform="translate(598.729 579)"/>
</clipPath>
<clipPath id="clip2_339_18291">
<rect width="125" height="24" fill="white" transform="translate(642.271 577)"/>
</clipPath>
<clipPath id="clip3_339_18291">
<rect width="58" height="24" fill="white" transform="translate(654 503)"/>
</clipPath>
</defs>
</svg>