<svg width="24" height="24" viewBox="0 0 24 24" fill="none" xmlns="http://www.w3.org/2000/svg">
<path fill-rule="evenodd" clip-rule="evenodd" d="M19.0601 16.9388C19.0095 16.8882 18.9562 16.842 18.9007 16.8001C20.2189 15.0452 21 12.8638 21 10.5C21 4.70101 16.299 0 10.5 0C4.70101 0 0 4.70101 0 10.5C0 16.299 4.70101 21 10.5 21C12.8638 21 15.0452 20.2189 16.8002 18.9007C16.842 18.9562 16.8882 19.0095 16.9388 19.0601L21.4399 23.5612C22.0257 24.1469 22.9754 24.1469 23.5612 23.5612C24.147 22.9754 24.147 22.0256 23.5612 21.4398L19.0601 16.9388ZM18 10.5C18 14.6421 14.6421 18 10.5 18C6.35786 18 3 14.6421 3 10.5C3 6.35786 6.35786 3 10.5 3C14.6421 3 18 6.35786 18 10.5Z" fill="#687385"/>
</svg>
