<svg width="22" height="22" viewBox="0 0 22 22" fill="none" xmlns="http://www.w3.org/2000/svg">
<path d="M13.079 0.5C13.2378 0.500005 13.3925 0.550406 13.5208 0.643944C13.6491 0.737482 13.7444 0.86933 13.793 1.0205L14.618 3.584C14.9645 3.7535 15.296 3.944 15.6125 4.1585L18.2465 3.5915C18.4018 3.55834 18.5636 3.57534 18.7087 3.64003C18.8537 3.70473 18.9744 3.81379 19.0535 3.9515L21.1325 7.55C21.2119 7.68763 21.2455 7.84693 21.2285 8.0049C21.2116 8.16288 21.1448 8.31139 21.038 8.429L19.2305 10.424C19.2568 10.8065 19.2568 11.1905 19.2305 11.573L21.038 13.571C21.1448 13.6886 21.2116 13.8371 21.2285 13.9951C21.2455 14.1531 21.2119 14.3124 21.1325 14.45L19.0535 18.05C18.9742 18.1874 18.8534 18.2962 18.7084 18.3606C18.5634 18.425 18.4017 18.4418 18.2465 18.4085L15.6125 17.8415C15.2975 18.0545 14.9645 18.2465 14.6195 18.416L13.793 20.9795C13.7444 21.1307 13.6491 21.2625 13.5208 21.3561C13.3925 21.4496 13.2378 21.5 13.079 21.5H8.92101C8.76222 21.5 8.60753 21.4496 8.47922 21.3561C8.35091 21.2625 8.2556 21.1307 8.20701 20.9795L7.38351 18.4175C7.03794 18.2485 6.70462 18.0555 6.38601 17.84L3.75351 18.4085C3.59821 18.4417 3.43639 18.4247 3.29136 18.36C3.14634 18.2953 3.02559 18.1862 2.94651 18.0485L0.86751 14.45C0.788122 14.3124 0.754495 14.1531 0.771479 13.9951C0.788463 13.8371 0.85518 13.6886 0.96201 13.571L2.76951 11.573C2.74333 11.1914 2.74333 10.8086 2.76951 10.427L0.96201 8.429C0.85518 8.31139 0.788463 8.16288 0.771479 8.0049C0.754495 7.84693 0.788122 7.68763 0.86751 7.55L2.94651 3.95C3.02581 3.81256 3.14665 3.70381 3.29166 3.63939C3.43667 3.57497 3.59837 3.55821 3.75351 3.5915L6.38601 4.16C6.70401 3.9455 7.03701 3.752 7.38351 3.5825L8.20851 1.0205C8.25694 0.869817 8.3518 0.738318 8.47951 0.644825C8.60722 0.551332 8.76124 0.500639 8.91951 0.5H13.0775H13.079ZM12.53 2H9.47001L8.61801 4.6505L8.04351 4.931C7.76109 5.06921 7.48845 5.22657 7.22751 5.402L6.69651 5.762L3.97251 5.174L2.44251 7.826L4.31001 9.893L4.26501 10.529C4.24346 10.8426 4.24346 11.1574 4.26501 11.471L4.31001 12.107L2.43951 14.174L3.97101 16.826L6.69501 16.2395L7.22601 16.598C7.48695 16.7734 7.75959 16.9308 8.04201 17.069L8.61651 17.3495L9.47001 20H12.533L13.388 17.348L13.961 17.069C14.2431 16.9311 14.5153 16.7737 14.7755 16.598L15.305 16.2395L18.0305 16.826L19.5605 14.174L17.6915 12.107L17.7365 11.471C17.7581 11.1569 17.7581 10.8416 17.7365 10.5275L17.6915 9.8915L19.562 7.826L18.0305 5.174L15.305 5.759L14.7755 5.402C14.5153 5.22622 14.2431 5.06884 13.961 4.931L13.388 4.652L12.5315 2H12.53ZM11 6.5C12.1935 6.5 13.3381 6.97411 14.182 7.81802C15.0259 8.66193 15.5 9.80653 15.5 11C15.5 12.1935 15.0259 13.3381 14.182 14.182C13.3381 15.0259 12.1935 15.5 11 15.5C9.80654 15.5 8.66194 15.0259 7.81803 14.182C6.97412 13.3381 6.50001 12.1935 6.50001 11C6.50001 9.80653 6.97412 8.66193 7.81803 7.81802C8.66194 6.97411 9.80654 6.5 11 6.5ZM11 8C10.2044 8 9.4413 8.31607 8.87869 8.87868C8.31608 9.44129 8.00001 10.2044 8.00001 11C8.00001 11.7956 8.31608 12.5587 8.87869 13.1213C9.4413 13.6839 10.2044 14 11 14C11.7957 14 12.5587 13.6839 13.1213 13.1213C13.6839 12.5587 14 11.7956 14 11C14 10.2044 13.6839 9.44129 13.1213 8.87868C12.5587 8.31607 11.7957 8 11 8Z" fill="#545969"/>
</svg>
