<svg width="18" height="18" viewBox="0 0 18 18" fill="none" xmlns="http://www.w3.org/2000/svg">
<path d="M8.95866 14C9.25033 14 9.49699 13.8992 9.69866 13.6975C9.89977 13.4964 10.0003 13.25 10.0003 12.9583C10.0003 12.6667 9.89977 12.4203 9.69866 12.2192C9.49699 12.0175 9.25033 11.9167 8.95866 11.9167C8.66699 11.9167 8.42033 12.0175 8.21866 12.2192C8.01755 12.4203 7.91699 12.6667 7.91699 12.9583C7.91699 13.25 8.01755 13.4964 8.21866 13.6975C8.42033 13.8992 8.66699 14 8.95866 14ZM9.08366 5.41667C9.47255 5.41667 9.78505 5.52417 10.0212 5.73917C10.2573 5.95472 10.3753 6.23611 10.3753 6.58334C10.3753 6.81945 10.2956 7.05889 10.1362 7.30167C9.97616 7.545 9.75033 7.79861 9.45866 8.0625C9.04199 8.42361 8.73644 8.77083 8.54199 9.10417C8.34755 9.4375 8.25033 9.77083 8.25033 10.1042C8.25033 10.2986 8.32338 10.4617 8.46949 10.5933C8.61505 10.7256 8.78505 10.7917 8.97949 10.7917C9.17394 10.7917 9.34755 10.7222 9.50033 10.5833C9.6531 10.4444 9.75033 10.2708 9.79199 10.0625C9.83366 9.82639 9.92755 9.60778 10.0737 9.40667C10.2192 9.205 10.4587 8.94445 10.792 8.625C11.2225 8.22222 11.5248 7.85417 11.6987 7.52084C11.872 7.1875 11.9587 6.81945 11.9587 6.41667C11.9587 5.70833 11.6914 5.12833 11.157 4.67667C10.622 4.22556 9.93088 4 9.08366 4C8.50033 4 7.9831 4.11111 7.53199 4.33333C7.08033 4.55556 6.72949 4.89583 6.47949 5.35417C6.38227 5.53472 6.34755 5.71167 6.37533 5.885C6.4031 6.05889 6.50033 6.20139 6.66699 6.3125C6.84755 6.42361 7.0456 6.45833 7.26116 6.41667C7.47616 6.375 7.6531 6.25695 7.79199 6.0625C7.94477 5.85417 8.12894 5.69445 8.34449 5.58333C8.55949 5.47222 8.80588 5.41667 9.08366 5.41667ZM9.00033 17.3333C7.86144 17.3333 6.78505 17.1144 5.77116 16.6767C4.75727 16.2394 3.87199 15.6458 3.11533 14.8958C2.3581 14.1458 1.76088 13.2639 1.32366 12.25C0.885881 11.2361 0.666992 10.1528 0.666992 9C0.666992 7.84722 0.885881 6.76389 1.32366 5.75C1.76088 4.73611 2.3581 3.85417 3.11533 3.10417C3.87199 2.35417 4.75727 1.76028 5.77116 1.3225C6.78505 0.885279 7.86144 0.666668 9.00033 0.666668C10.167 0.666668 11.2573 0.885279 12.2712 1.3225C13.285 1.76028 14.167 2.35417 14.917 3.10417C15.667 3.85417 16.2573 4.73611 16.6878 5.75C17.1184 6.76389 17.3337 7.84722 17.3337 9C17.3337 10.1528 17.1184 11.2361 16.6878 12.25C16.2573 13.2639 15.667 14.1458 14.917 14.8958C14.167 15.6458 13.285 16.2394 12.2712 16.6767C11.2573 17.1144 10.167 17.3333 9.00033 17.3333Z" fill="#545969"/>
</svg>
